<svg width="47" height="37" viewBox="0 0 47 37" fill="none" xmlns="http://www.w3.org/2000/svg">
<g clip-path="url(#clip0_698_1485)">
<path d="M35.1324 27.6575C31.7848 29.6663 27.7086 30.7791 23.4999 30.8333C9.79159 30.8333 1.95825 18.5 1.95825 18.5C4.3942 14.9262 7.77281 11.8039 11.8674 9.34246M19.3874 6.53663C20.7354 6.28823 22.1155 6.16406 23.4999 6.16663C37.2083 6.16663 45.0416 18.5 45.0416 18.5C43.8528 20.2507 42.4352 21.8989 40.8116 23.4179M27.6516 21.7683C27.1137 22.2227 26.4651 22.5872 25.7445 22.8399C25.0238 23.0927 24.2459 23.2286 23.457 23.2396C22.6682 23.2506 21.8846 23.1363 21.1531 22.9037C20.4215 22.6711 19.757 22.3249 19.1991 21.8857C18.6412 21.4465 18.2014 20.9234 17.906 20.3475C17.6105 19.7716 17.4654 19.1547 17.4793 18.5337C17.4932 17.9127 17.6659 17.3003 17.987 16.733C18.3081 16.1656 18.771 15.655 19.3483 15.2316M1.95825 1.54163L45.0416 35.4583" stroke="currentColor" stroke-width="4" stroke-linecap="round" stroke-linejoin="round"/>
</g>
<defs>
<clipPath id="clip0_698_1485">
<rect width="47" height="37" fill="white"/>
</clipPath>
</defs>
</svg>
