<svg width="33" height="33" viewBox="0 0 33 33" xmlns="http://www.w3.org/2000/svg">
<circle cx="16.5" cy="12.375" r="5.5" fill="currentColor"/>
<circle cx="23.375" cy="12.375" r="4.125" fill="currentColor"/>
<circle cx="9.625" cy="12.375" r="4.125" fill="currentColor"/>
<path fill-rule="evenodd" clip-rule="evenodd" d="M24.1568 24.75H27.7703C28.3619 24.75 28.8155 24.2398 28.6896 23.6618C28.2675 21.7236 26.9759 17.875 23.3753 17.875C22.1569 17.875 21.2029 18.3156 20.4575 18.9738C22.5307 20.3189 23.6026 22.6741 24.1568 24.75Z" fill="currentColor"/>
<path fill-rule="evenodd" clip-rule="evenodd" d="M12.5427 18.9738C11.7974 18.3156 10.8434 17.875 9.62502 17.875C6.02435 17.875 4.7328 21.7235 4.31067 23.6617C4.18477 24.2398 4.63837 24.75 5.22999 24.75H8.8434C9.39765 22.6741 10.4696 20.3188 12.5427 18.9738Z" fill="currentColor"/>
<path d="M16.5 19.25C21.8835 19.25 23.0514 24.3088 23.3048 26.5037C23.3681 27.0523 22.9273 27.5 22.375 27.5H10.625C10.0727 27.5 9.63186 27.0523 9.69519 26.5037C9.94856 24.3088 11.1165 19.25 16.5 19.25Z" fill="currentColor"/>
</svg>
