<svg width="232" height="184" viewBox="0 0 232 184" fill="none" xmlns="http://www.w3.org/2000/svg">
<path d="M226.085 49.9278C233.16 53.6887 233.16 63.8268 226.085 67.5877L134.389 116.332C127.729 119.872 119.696 115.045 119.696 107.502V10.0138C119.696 2.47056 127.729 -2.35684 134.389 1.18383L226.085 49.9278Z" fill="#1F75FF"/>
<path d="M5.30615 49.9278C-1.76871 53.6887 -1.76872 63.8268 5.30614 67.5877L97.0017 116.332C103.662 119.872 111.696 115.045 111.696 107.502V10.0138C111.696 2.47056 103.662 -2.35684 97.0017 1.18383L5.30615 49.9278Z" fill="#1F75FF"/>
<path d="M113.37 133.536C114.826 134.301 116.565 134.301 118.021 133.536L187.37 97.1058C190.7 95.3568 194.696 97.7714 194.696 101.532V138.931C194.696 140.774 193.682 142.468 192.057 143.338L118.057 182.992C116.582 183.783 114.809 183.783 113.334 182.992L39.3339 143.338C37.7094 142.468 36.6956 140.774 36.6956 138.931V101.532C36.6956 97.7714 40.6914 95.3568 44.0208 97.1058L113.37 133.536Z" fill="#FF3B30"/>
</svg>
