<svg width="20" height="20" viewBox="0 0 20 20" fill="none" xmlns="http://www.w3.org/2000/svg">
<path d="M7.529 7.988C7.53771 7.65705 7.61201 7.33111 7.7476 7.02908C7.88319 6.72705 8.07738 6.45494 8.3189 6.2285C8.56043 6.00207 8.84449 5.82582 9.15463 5.70997C9.46477 5.59412 9.79481 5.54098 10.1256 5.55362C10.4565 5.56626 10.7815 5.64442 11.0819 5.7836C11.3823 5.92277 11.6521 6.12017 11.8756 6.36437C12.0992 6.60857 12.272 6.89471 12.3842 7.2062C12.4963 7.51769 12.5456 7.84835 12.529 8.179C12.5242 8.50389 12.4545 8.82454 12.3241 9.12215C12.1937 9.41976 12.0052 9.68835 11.7697 9.91216C11.5341 10.136 11.2563 10.3105 10.9524 10.4255C10.6485 10.5406 10.3247 10.5937 10 10.582V12M9.99 15.008H10M19 10C19 11.1819 18.7672 12.3522 18.3149 13.4442C17.8626 14.5361 17.1997 15.5282 16.364 16.364C15.5282 17.1997 14.5361 17.8626 13.4442 18.3149C12.3522 18.7672 11.1819 19 10 19C8.8181 19 7.64778 18.7672 6.55585 18.3149C5.46392 17.8626 4.47177 17.1997 3.63604 16.364C2.80031 15.5282 2.13738 14.5361 1.68508 13.4442C1.23279 12.3522 1 11.1819 1 10C1 7.61305 1.94821 5.32387 3.63604 3.63604C5.32387 1.94821 7.61305 1 10 1C12.3869 1 14.6761 1.94821 16.364 3.63604C18.0518 5.32387 19 7.61305 19 10Z" stroke="currentColor" stroke-width="2" stroke-linecap="round" stroke-linejoin="round"/>
</svg>
