<svg width="100%" height="100%" viewBox="0 0 223 167" fill="none" xmlns="http://www.w3.org/2000/svg">
<path d="M205.565 45.3963C211.998 48.8159 211.998 58.0338 205.565 61.4534L122.192 105.773C116.136 108.993 108.832 104.603 108.832 97.7448V9.10492C108.832 2.24634 116.136 -2.14294 122.192 1.07639L205.565 45.3963Z" fill="#1F75FF"/>
<path d="M103.081 121.416C104.405 122.112 105.986 122.112 107.309 121.416L170.365 88.2925C173.392 86.7022 177.025 88.8977 177.025 92.3172V126.322C177.025 127.997 176.103 129.537 174.626 130.329L107.342 166.384C106.001 167.103 104.389 167.103 103.048 166.384L35.764 130.329C34.287 129.537 33.3651 127.997 33.3651 126.322V92.3172C33.3651 88.8977 36.9983 86.7022 40.0255 88.2925L103.081 121.416Z" fill="#FF9500"/>
<path d="M4.82456 45.3963C-1.60818 48.8159 -1.60819 58.0338 4.82455 61.4534L88.1978 105.773C94.2539 108.993 101.558 104.603 101.558 97.7448V9.10492C101.558 2.24634 94.2539 -2.14294 88.1978 1.07639L4.82456 45.3963Z" fill="#1F75FF"/>
<path d="M215.25 144.25L191.265 120.265M204.222 89.1111C204.222 113.473 184.473 133.222 160.111 133.222C135.749 133.222 116 113.473 116 89.1111C116 64.7492 135.749 45 160.111 45C184.473 45 204.222 64.7492 204.222 89.1111Z" stroke="white" stroke-width="8" stroke-linecap="round" stroke-linejoin="round"/>
<path d="M208.75 137.75L188.087 117.087M199.25 90.25C199.25 111.237 182.237 128.25 161.25 128.25C140.263 128.25 123.25 111.237 123.25 90.25C123.25 69.2632 140.263 52.25 161.25 52.25C182.237 52.25 199.25 69.2632 199.25 90.25Z" stroke="#A1A8CC" stroke-width="8" stroke-linecap="round" stroke-linejoin="round"/>
</svg>
